<svg height="30" viewBox="0 0 110 30" width="110" xmlns="http://www.w3.org/2000/svg" xmlns:xlink="http://www.w3.org/1999/xlink"><linearGradient id="a" gradientUnits="userSpaceOnUse" x1="19.014" x2="43.986" y1="15.482" y2="15.482"><stop offset="0" stop-color="#419a45"/><stop offset=".16" stop-color="#419a45"/><stop offset=".26" stop-color="#4ca245"/><stop offset=".53" stop-color="#63b344"/><stop offset=".78" stop-color="#70bd44"/><stop offset="1" stop-color="#75c044"/></linearGradient><path d="m31.5 27.97c-.08 0-.15 0-.22-.01-.08-.01-.15-.03-.22-.05s-.14-.04-.21-.07-.13-.07-.2-.1l-8.33-5c-.1-.06-.2-.14-.29-.22-.08-.09-.16-.18-.23-.29-.07-.1-.12-.21-.16-.32-.05-.12-.08-.24-.1-.36l-2.53-16.64c-.01-.11-.01-.23 0-.35s.03-.24.06-.36c.04-.11.08-.22.14-.33.06-.1.13-.2.21-.29s.17-.17.26-.24c.1-.08.21-.14.32-.19s.22-.09.34-.11c.12-.03.24-.04.36-.04h21.62c.12 0 .24.02.36.04.11.03.23.07.34.12.1.05.21.11.3.18.1.07.18.15.26.24s.15.19.2.3c.06.1.11.21.14.33.03.11.05.23.06.35s.01.24-.01.35l-2.5 16.64c-.02.12-.05.24-.09.36-.05.11-.1.22-.17.32s-.15.2-.24.28c-.09.09-.18.16-.29.22l-8.32 5c-.07.04-.13.07-.2.1s-.14.06-.22.08c-.07.02-.14.04-.22.05-.07.01-.15.01-.22.01z" fill="url(#a)"/><path d="m31.5 20.99c-2.24 0-4.33-1.12-5.57-2.98s-1.47-4.22-.61-6.28c.86-2.07 2.68-3.57 4.88-4 2.19-.44 4.45.24 6.04 1.82l-1.78 1.78c-1.2-1.22-3.02-1.6-4.61-.95s-2.62 2.19-2.62 3.9c0 1.72 1.03 3.26 2.62 3.91s3.41.27 4.61-.95l1.78 1.78c-.31.32-.65.6-1.02.84-.36.25-.75.45-1.16.62-.4.17-.82.3-1.26.38-.43.09-.86.13-1.3.13z" fill="#fff"/><g fill="#010101"><path d="m51.29 11.3c.17-.01.35.01.52.04.17.02.34.07.51.13.16.07.32.15.46.24.15.09.29.2.42.32.01.02.02.03.03.05s.01.04.01.06 0 .04-.01.06-.02.04-.03.05l-.62.63c-.01.02-.03.03-.04.04-.02.01-.04.01-.06.01s-.03 0-.05-.01-.03-.02-.04-.04c-.08-.06-.16-.11-.24-.16s-.17-.09-.26-.13c-.09-.03-.18-.06-.28-.07-.09-.02-.19-.03-.29-.03-.42 0-.83.17-1.14.47-.3.3-.47.71-.47 1.14s.17.84.47 1.14c.31.3.72.47 1.14.47.1 0 .19-.01.29-.03.09-.01.18-.04.27-.07s.18-.07.26-.12c.09-.05.16-.1.24-.16.01-.01.03-.02.04-.03.02-.01.04-.01.06-.01s.04 0 .05.01c.02.01.04.02.05.03l.62.65c.01.01.02.03.03.05 0 .02.01.04.01.05 0 .02-.01.04-.01.06-.01.02-.02.04-.03.05-.13.12-.27.23-.42.33-.14.1-.3.18-.47.24-.16.07-.33.12-.5.15-.18.03-.35.05-.53.05-.75 0-1.47-.3-2-.83s-.83-1.25-.83-2.01c0-.75.3-1.47.83-2s1.25-.83 2-.83z"/><path d="m54.93 11.53c0-.02.01-.04.02-.06 0-.02.02-.03.03-.05.01-.01.03-.02.05-.03s.04-.01.05-.02h3.27c.02.01.04.01.05.02.02.01.04.02.05.03.01.02.02.03.03.05s.01.04.01.06v.84c0 .02 0 .04-.01.05-.01.02-.02.04-.03.05s-.03.02-.05.03c-.01.01-.03.01-.05.01h-2.19v.98h1.8c.02 0 .04.01.06.02.02 0 .03.01.05.03.01.01.02.03.03.05.01.01.01.03.01.05v.85c0 .02 0 .03-.01.05s-.02.04-.03.05c-.02.01-.04.02-.05.03-.02.01-.04.01-.06.01h-1.8v1.1h2.19c.02 0 .04.01.05.02.02 0 .04.01.05.03.01.01.02.03.03.04.01.02.01.04.01.06v.84c0 .02 0 .04-.01.06s-.02.03-.03.05c-.01.01-.03.02-.05.03-.01.01-.03.01-.05.01h-3.27c-.01 0-.03 0-.05-.01s-.04-.02-.05-.03c-.01-.02-.03-.03-.03-.05-.01-.02-.02-.04-.02-.06z"/><path d="m60.34 11.53c0-.02 0-.04.01-.06s.02-.04.03-.05c.02-.02.03-.03.05-.03.02-.01.04-.02.06-.02h1.9c.46 0 .91.19 1.24.52s.51.77.51 1.24c0 .46-.18.91-.51 1.24s-.78.51-1.24.51h-.84v1.86c0 .02-.01.04-.02.05 0 .02-.01.04-.03.05-.01.02-.03.03-.04.04-.02 0-.04.01-.06.01h-.93c-.02 0-.04 0-.05-.01-.02-.01-.04-.02-.05-.03-.02-.02-.03-.04-.04-.05 0-.02-.01-.04-.01-.06zm1.97 2.21c.08 0 .17-.02.24-.05.08-.03.15-.08.2-.14.06-.05.11-.12.14-.2.03-.07.05-.16.05-.24-.01-.08-.03-.15-.06-.23-.03-.07-.08-.13-.14-.19-.05-.05-.12-.09-.2-.12-.07-.03-.15-.04-.23-.04h-.75v1.21z" fill-rule="evenodd"/><path d="m66.47 12.53h-1.12c-.02 0-.04 0-.06-.01s-.03-.02-.05-.03c-.01-.01-.02-.03-.03-.05-.01-.01-.01-.03-.01-.05v-.85c0-.02 0-.04.01-.05.01-.02.02-.04.03-.05.02-.02.03-.03.05-.04.02 0 .04-.01.06-.01h3.49c.02 0 .04.01.06.02.01 0 .03.01.05.03.01.01.02.03.03.05.01.01.01.03.01.05v.85c0 .02 0 .03-.01.05s-.02.04-.04.05c-.01.01-.03.02-.04.03-.02.01-.04.01-.06.01h-1.12v4.22c0 .02-.01.04-.02.05 0 .02-.01.04-.03.05-.01.02-.03.03-.05.03-.01.01-.03.02-.05.02h-.95c-.02 0-.04-.01-.05-.02-.02 0-.04-.01-.05-.03-.02-.01-.03-.03-.04-.05 0-.01-.01-.03-.01-.05z"/><path d="m70.57 11.53c0-.02 0-.04.01-.06s.02-.03.03-.05c.01-.01.03-.02.05-.03.01-.01.03-.01.05-.02h3.27c.02.01.04.01.05.02.02.01.04.02.05.03.02.02.03.03.03.05.01.02.02.04.02.06v.84c0 .02-.01.04-.02.06 0 .01-.02.03-.03.04s-.03.03-.05.03c-.02.01-.03.01-.05.01h-2.19v.98h1.8c.02 0 .04.01.06.02.01 0 .03.01.04.03.02.01.03.03.04.05 0 .01.01.03.01.05v.85c0 .02 0 .04-.01.05-.01.02-.02.04-.03.05-.02.01-.04.02-.05.03-.02.01-.04.01-.06.01h-1.8v1.1h2.19c.02 0 .03.01.05.02.02 0 .04.01.05.03.01.01.03.03.03.04.01.02.02.04.02.06v.84c0 .02-.01.04-.02.06 0 .02-.01.03-.03.05-.01.01-.03.02-.05.03-.01.01-.03.01-.05.01h-3.27c-.02 0-.04 0-.05-.01-.02-.01-.04-.02-.05-.03-.01-.02-.02-.03-.03-.05s-.01-.04-.01-.06z"/><path d="m76.67 12.53h-1.15c-.02 0-.04 0-.06-.01s-.03-.02-.05-.03c-.01-.01-.02-.03-.03-.05-.01-.01-.01-.03-.01-.05v-.85c0-.02 0-.04 0-.06.01-.02.02-.04.04-.06.01-.01.03-.02.05-.03s.04-.02.06-.02h3.49c.02 0 .04.01.06.02.02 0 .03.01.05.03.01.01.02.03.03.05s.01.04.01.06v.84c0 .02 0 .04-.01.06-.01.01-.02.03-.03.04-.02.02-.03.03-.05.03-.02.01-.04.01-.06.01h-1.09v4.22c0 .02 0 .04-.01.06-.01.01-.02.03-.03.05-.02.01-.03.02-.05.03s-.04.01-.06.01h-.94c-.02 0-.04 0-.06-.01s-.03-.02-.05-.03c-.01-.02-.02-.04-.03-.05-.01-.02-.01-.04-.02-.06z"/><path d="m80.77 11.53c0-.02.01-.04.01-.06.01-.02.02-.03.04-.05.01-.01.02-.02.04-.03s.04-.01.06-.02h3.26c.02.01.04.01.06.02s.03.02.05.03c.01.02.02.03.03.05s.01.04.01.06v.84c0 .02 0 .04-.01.06-.01.01-.02.03-.03.04-.02.01-.04.03-.05.03-.02.01-.04.01-.06.01h-2.18v.98h1.79c.02 0 .04.01.06.02.02 0 .03.01.05.03.01.01.02.03.03.05.01.01.01.03.01.05v.85c0 .02 0 .03-.01.05s-.02.04-.03.05c-.02.01-.03.02-.05.03s-.04.01-.06.01h-1.79v1.1h2.18c.02 0 .04.01.06.02.01 0 .03.01.05.03.01.01.02.03.03.04.01.02.01.04.01.06v.84c0 .02 0 .04-.01.06s-.02.03-.03.05c-.02.01-.03.02-.05.03s-.04.01-.06.01h-3.26c-.02 0-.04 0-.06-.01s-.03-.02-.04-.03c-.02-.02-.03-.03-.04-.05 0-.02-.01-.04-.01-.06z"/><path d="m86.17 11.53c0-.02.01-.04.01-.06.01-.02.02-.03.04-.05.01-.01.03-.02.05-.03.01-.01.03-.01.05-.02h1.85c.21-.01.41.02.61.08.2.07.38.17.54.31.15.14.28.3.37.49.1.18.15.39.17.59-.02.14-.05.27-.1.39-.05.13-.11.24-.19.35s-.18.21-.28.29c-.11.09-.22.16-.34.21.14.05.27.11.39.19s.23.18.32.29c.1.12.17.24.23.38.06.13.09.28.11.42-.01.21-.06.42-.15.61s-.22.36-.38.51c-.15.14-.34.25-.54.32-.19.07-.41.1-.62.09h-1.99c-.02 0-.04-.01-.05-.01-.02-.01-.04-.02-.05-.04-.02-.01-.03-.03-.04-.04 0-.02-.01-.04-.01-.06zm1.85 2.08c.07 0 .14-.02.21-.05s.13-.07.18-.12.09-.12.11-.18c.03-.07.05-.14.05-.22 0-.07-.02-.14-.05-.2-.02-.07-.06-.13-.12-.18-.05-.05-.11-.09-.17-.11-.07-.03-.14-.04-.21-.04h-.62v1.1zm.1 2.15c.07 0 .15-.02.22-.05.06-.03.13-.07.18-.12s.09-.12.12-.19c.03-.06.04-.14.04-.21-.01-.08-.03-.16-.07-.22-.04-.07-.09-.13-.14-.18-.06-.05-.13-.09-.21-.12-.07-.02-.15-.03-.23-.03h-.63v1.12z" fill-rule="evenodd"/></g></svg>