<svg width="110" height="30" viewBox="0 0 110 30" fill="none" xmlns="http://www.w3.org/2000/svg">
<path d="M74.2395 24.3872H35.7484C29.1267 24.3872 23.7023 18.961 23.7023 12.3411V12.0889C23.7023 5.469 29.1267 0.0428162 35.7484 0.0428162H74.2516C80.8733 0.0428162 86.2977 5.469 86.2977 12.0889V12.3411C86.2977 18.9628 80.8716 24.3872 74.2516 24.3872" fill="#00FF00"/>
<path d="M51.3428 2.54251H35.8693C30.5329 2.54251 26.1951 6.88035 26.1951 12.2167C26.1951 17.5531 30.5312 21.8943 35.8693 21.8943C36.0887 21.8943 41.349 21.8943 41.5684 21.8719H50.695C50.9144 21.8823 51.1217 21.8943 51.3428 21.8943C56.6791 21.8943 61.017 17.5565 61.017 12.2202C61.017 6.8838 56.6791 2.54251 51.3428 2.54251Z" fill="white"/>
<path d="M68.0567 5.26861L72.2961 11.6277C72.417 11.8039 72.6917 11.7158 72.6917 11.5067V5.69531C72.6917 5.25479 73.0423 4.9041 73.4829 4.9041H76.779C77.2195 4.9041 77.5702 5.25479 77.5702 5.69531V18.7209C77.5702 19.1614 77.2195 19.5121 76.779 19.5121H73.1218C72.8575 19.5121 72.6174 19.3808 72.4619 19.1614L68.2225 12.8007C68.1016 12.6245 67.8269 12.7126 67.8269 12.9216V18.7192C67.8269 19.1597 67.4762 19.5104 67.0357 19.5104H63.7396C63.2991 19.5104 62.9484 19.1597 62.9484 18.7192V5.69359C62.9484 5.25306 63.2991 4.90237 63.7396 4.90237H67.3968C67.6611 4.90237 67.9012 5.03367 68.0567 5.25306" fill="#2C2927"/>
<path d="M51.3429 4.48773C47.0707 4.48773 43.6122 7.94625 43.6122 12.2184C43.6122 16.4906 47.0707 19.9492 51.3429 19.9492C55.6151 19.9492 59.0736 16.4906 59.0736 12.2184C59.0736 7.94625 55.6151 4.48773 51.3429 4.48773Z" fill="#2C2927"/>
<path d="M34.3975 26.7159H35.8694C36.2201 26.7159 36.5293 26.7833 36.804 26.9129C37.0787 27.0424 37.2877 27.2307 37.4293 27.483C37.5831 27.7248 37.6487 28.0099 37.6487 28.3398C37.6487 28.6681 37.5727 28.9427 37.4293 29.1967C37.2756 29.4385 37.0666 29.6234 36.804 29.7668C36.5293 29.8981 36.2201 29.9637 35.8694 29.9637H34.3975V26.7246V26.7159ZM35.8348 29.3383C36.1527 29.3383 36.4187 29.2502 36.6157 29.0637C36.8126 28.8875 36.9024 28.637 36.9024 28.3277C36.9024 28.022 36.804 27.7801 36.6157 27.5918C36.4187 27.4156 36.1665 27.3171 35.8348 27.3171H35.1525V29.3262H35.8348V29.3383Z" fill="#2C2927"/>
<path d="M37.856 26.3099C37.78 26.2339 37.7471 26.1441 37.7471 26.0231C37.7471 25.9022 37.78 25.8158 37.856 25.7485C37.932 25.6724 38.0218 25.6396 38.1306 25.6396C38.2395 25.6396 38.3379 25.6724 38.4053 25.7485C38.4813 25.8245 38.5142 25.9143 38.5142 26.0231C38.5142 26.132 38.4813 26.2304 38.4053 26.3099C38.3293 26.3859 38.2395 26.4187 38.1306 26.4187C38.0218 26.4187 37.9233 26.3859 37.856 26.3099ZM37.7575 26.7055H38.5038V29.9446H37.7575V26.7055Z" fill="#2C2927"/>
<path d="M39.2294 29.8894C39.0411 29.8134 38.9011 29.6925 38.7802 29.5387L39.1983 29.0343C39.3745 29.2762 39.5714 29.385 39.8012 29.385C40.107 29.385 40.2624 29.2088 40.2624 28.846V27.3068H39.1205V26.7039H41.0105V28.8011C41.0105 29.1967 40.912 29.4921 40.7133 29.7029C40.5164 29.8998 40.2296 30 39.8461 30C39.6267 30 39.428 29.9551 39.2432 29.8791L39.2294 29.8894Z" fill="#2C2927"/>
<path d="M41.4475 26.3099C41.3715 26.2339 41.3387 26.1441 41.3387 26.0231C41.3387 25.9022 41.3715 25.8158 41.4475 25.7485C41.5235 25.6724 41.6134 25.6396 41.7222 25.6396C41.831 25.6396 41.9295 25.6724 41.9969 25.7485C42.0729 25.8245 42.1057 25.9143 42.1057 26.0231C42.1057 26.132 42.0729 26.2304 41.9969 26.3099C41.9209 26.3859 41.831 26.4187 41.7222 26.4187C41.6116 26.4187 41.5132 26.3859 41.4475 26.3099ZM41.349 26.7055H42.0953V29.9446H41.349V26.7055Z" fill="#2C2927"/>
<path d="M43.4894 27.3206H42.4564V26.7056H45.2809V27.3206H44.2478V29.9447H43.5015V27.3206H43.4894Z" fill="#2C2927"/>
<path d="M47.1571 29.252H45.6524L45.3657 29.943H44.5969L46.0342 26.7039H46.7702L48.2196 29.943H47.4284L47.1416 29.252H47.1571ZM46.9274 28.6819L46.4108 27.4415L45.8943 28.6819C45.896 28.6819 46.9274 28.6819 46.9274 28.6819Z" fill="#2C2927"/>
<path d="M48.4977 26.7159H49.244V29.3401H50.8696V29.9551H48.4977V26.7159Z" fill="#2C2927"/>
<path d="M53.1445 26.925C53.3328 27.0684 53.4192 27.2653 53.4192 27.5175C53.4192 27.7058 53.3657 27.8682 53.2655 28.0012C53.1566 28.1325 53.0133 28.2085 52.8249 28.2535C53.0547 28.2863 53.243 28.3744 53.3726 28.5178C53.5039 28.6612 53.5695 28.846 53.5695 29.0654C53.5695 29.3401 53.471 29.5595 53.2637 29.7132C53.0564 29.867 52.7697 29.943 52.4069 29.943H51.0231V26.7039H52.3844C52.7127 26.7039 52.9683 26.7799 53.1532 26.9233L53.1445 26.925ZM51.3876 28.1118H52.3654C52.5848 28.1118 52.7507 28.0669 52.8699 27.9805C52.9908 27.8924 53.0461 27.7611 53.0461 27.5849C53.0461 27.4087 52.9925 27.2981 52.8699 27.1997C52.7489 27.1116 52.5831 27.0684 52.3654 27.0684H51.3876C51.3876 27.0666 51.3876 28.1118 51.3876 28.1118ZM51.3876 29.6027H52.3654C52.6297 29.6027 52.837 29.5491 52.9804 29.4489C53.1238 29.3504 53.1998 29.2071 53.1998 29.0222C53.1998 28.8374 53.1238 28.7043 52.9804 28.6162C52.837 28.5178 52.6297 28.4729 52.3654 28.4729H51.3876V29.6027Z" fill="#2C2927"/>
<path d="M54.4161 29.131L54.0533 29.9447H53.6577L55.1071 26.7056H55.4924L56.9418 29.9447H56.5358L56.173 29.131H54.404H54.4161ZM55.2954 27.1323L54.5716 28.7803H56.021L55.2851 27.1323H55.2954Z" fill="#2C2927"/>
<path d="M59.59 29.9551L57.6448 27.3534V29.9551H57.2716V26.7159H57.6568L59.6021 29.3176V26.7159H59.9648V29.9551H59.5796H59.59Z" fill="#2C2927"/>
<path d="M61.3021 28.4176L60.6767 29.1086V29.9533H60.3036V26.7159H60.6767V28.5834L62.4112 26.7159H62.8517L61.5664 28.1222L62.9502 29.9551H62.501C62.501 29.9551 61.3038 28.4176 61.3021 28.4176Z" fill="#2C2927"/>
<path d="M63.9832 29.131L63.6205 29.9447H63.2249L64.6743 26.7056H65.0595L66.5089 29.9447H66.1029L65.7401 29.131H63.9729H63.9832ZM64.8626 27.1323L64.1387 28.7803H65.5881L64.8522 27.1323H64.8626Z" fill="#2C2927"/>
<path d="M68.6268 26.8265C68.8341 26.9146 69.0121 27.0234 69.1745 27.1772L68.9551 27.4639C68.8238 27.3326 68.6804 27.2342 68.5145 27.1668C68.3487 27.0994 68.1742 27.058 67.998 27.058C67.7561 27.058 67.5368 27.1115 67.3381 27.2342C67.1411 27.343 66.9753 27.4985 66.8544 27.6954C66.7334 27.8924 66.6782 28.1014 66.6782 28.3432C66.6782 28.5851 66.7317 28.7924 66.8544 28.9807C66.9753 29.1776 67.1291 29.3314 67.3381 29.442C67.535 29.5508 67.7648 29.6182 67.998 29.6182C68.1742 29.6182 68.3487 29.5853 68.5145 29.5197C68.6804 29.4523 68.8324 29.3538 68.9551 29.2329L69.1848 29.4851C69.019 29.6389 68.8341 29.7598 68.6234 29.8479C68.4161 29.936 68.1967 29.9792 67.9755 29.9792C67.6698 29.9792 67.3916 29.9032 67.1308 29.7598C66.8786 29.6164 66.6695 29.4195 66.5279 29.1673C66.3845 28.9151 66.3085 28.6404 66.3085 28.345C66.3085 28.0478 66.3845 27.7749 66.5382 27.5313C66.692 27.2791 66.8889 27.0908 67.1532 26.9388C67.4055 26.7954 67.6922 26.7194 67.998 26.7194C68.2174 26.7194 68.4247 26.7643 68.6355 26.8403L68.6268 26.8265Z" fill="#2C2927"/>
<path d="M69.475 29.9551V26.7159H69.8482V29.9551H69.475Z" fill="#2C2927"/>
<path d="M71.9678 29.6027V29.9533H70.1763V26.7159H70.5495V29.6044H71.9678V29.6027Z" fill="#2C2927"/>
<path d="M72.3841 29.9551V26.7159H72.7572V29.9551H72.3841Z" fill="#2C2927"/>
<path d="M74.0875 28.4176L73.4621 29.1086V29.9533H73.089V26.7159H73.4621V28.5834L75.1966 26.7159H75.6371L74.3518 28.1222L75.7356 29.9551H75.2864C75.283 29.9551 74.0875 28.4176 74.0875 28.4176Z" fill="#2C2927"/>
</svg>
