<svg fill="none" height="30" width="110" xmlns="http://www.w3.org/2000/svg">
    <g fill="#000">
        <path d="M21.066 9.562c1.448 0 1.448 0 1.93.207.69.23 1.195.689 1.516 1.378.276.62.276.345.276 3.515v2.688h-5.445l-.275-.069c-.345-.138-.62-.275-.896-.413-.207-.207-.62-.62-.758-.896-.207-.276-.345-.758-.414-1.034v-2.895c.138-.551.345-1.034.69-1.447.413-.552 1.17-.965 1.86-1.034z"/>
        <path clip-rule="evenodd" d="M38.572 11.285H39.675l1.24 3.515c.69 1.93 1.31 3.446 1.31 3.446h-1.448l-.413-1.172h-2.48l-.208.62-.206.552H36.09s.552-1.585 1.24-3.446zm.552 2.068v.069c-.138.413-.827 2.412-.827 2.412s.344.069.827.069c.689 0 .896-.07.827-.07 0 0-.138-.62-.414-1.24-.206-.689-.413-1.24-.413-1.24zM56.974 11.285h.62v6.961h-1.24v-.414l-.138.138c-.206.138-.482.276-.758.345s-.758 0-1.034-.069c-.62-.207-.965-.69-1.033-1.585-.07-.276-.07-1.585 0-1.861.137-1.103.689-1.654 1.654-1.654.482 0 .827.069 1.171.344l.138.138v-2.343zm-2.205 3.308c-.138.207-.138.552-.138 1.103 0 .62 0 .827.138 1.034.138.344.345.482.69.482.275 0 .413-.069.55-.206.276-.207.345-.552.345-1.241 0-.551-.069-.896-.138-1.103-.138-.138-.275-.276-.413-.344-.414-.138-.827 0-1.034.275z" fill-rule="evenodd"/>
        <path d="M63.59 11.285h1.241v2.895c.07 2.757.07 2.826.07 2.894.137.138.275.138.55.138h.345v1.034h-1.172c-.505-.138-.826-.46-.964-.965-.07-.138-.07-.482-.07-3.101z"/>
        <path clip-rule="evenodd" d="M71.861 11.285h1.241v2.343l.138-.138c.345-.275.69-.344 1.24-.344.896 0 1.379.482 1.586 1.516.069.276.069 1.861 0 2.137-.138.689-.414 1.102-.758 1.31-.276.137-.483.206-.828.206-.505.046-.919-.069-1.24-.345l-.138-.138s-.069.138-.069.207v.207h-1.172zm1.654 3.102c-.206.137-.344.413-.344.689-.069.344-.069 1.102 0 1.378.069.551.344.758.827.758a.783.783 0 0 0 .551-.207c.207-.206.276-.413.276-1.033 0-.552 0-1.034-.138-1.24-.069-.139-.207-.346-.413-.414-.276-.07-.552 0-.758.068z" fill-rule="evenodd"/>
        <path d="M87.782 11.354h1.24v3.928l.828-1.033.827-1.034h1.516c0 .069-.413.482-.896 1.034l-.896.964.07.138c.137.138 1.791 2.757 1.86 2.826l.069.07h-1.585l-.62-1.035c-.345-.551-.62-.965-.62-1.034 0 0-.139.138-.345.276l-.207.345v1.448h-1.24V14.8z"/>
    </g>
    <path d="m25.753 12.181 2.688.069c2.964 0 2.826 0 3.308.138.758.275 1.379.965 1.654 1.654.138.482.138.62.138 2.205 0 1.172 0 1.448-.069 1.585a2.787 2.787 0 0 1-2.412 2.137c-.207.069-.69.069-1.585.069-1.24 0-1.31 0-1.516-.069-1.034-.276-1.792-1.034-2.068-1.999l-.138-.275v-2.757z" fill="#1b77bc"/>
    <path d="M46.36 13.353c.345.138.62.482.759.896l.069.275v3.722h-1.241V14.87l-.138-.138c-.138-.322-.39-.482-.758-.482a1.055 1.055 0 0 0-.758.482c0 .138 0 .207-.07 1.861v1.654h-1.24v-5.031h1.24v.413l.139-.137c.23-.138.46-.253.689-.345.413-.069.965 0 1.31.207z" fill="#000"/>
    <path clip-rule="evenodd" d="M50.978 13.215c.69.138 1.103.551 1.24 1.172.07.137.07.344.07 1.998v1.861h-1.24v-.414l-.139.138c-.275.207-.689.345-1.102.345h-.483c-.62-.138-1.103-.551-1.24-1.172-.138-.896.206-1.516 1.102-1.792.138-.069.276-.069 1.034-.069h.827v-.275c-.069-.138-.069-.276-.069-.345-.138-.276-.39-.436-.758-.482-.413 0-.758.115-1.034.344l-.138.07-.344-.345-.414-.414.07-.138c.137-.138.482-.344.688-.413.138-.07.276-.07.414-.138.345-.069 1.172 0 1.516.069zm0 2.895h-.482c-.69 0-.827.068-.965.137-.207.138-.207.207-.207.483 0 .321.138.505.414.551.482.07.965-.069 1.171-.276.07-.137.138-.482.138-.689zM61.316 13.215c.345.069.552.207.827.482.414.414.62 1.034.62 1.999 0 .758-.068 1.24-.344 1.654a1.638 1.638 0 0 1-1.103.896c-.206.069-.206.069-.689.069-.482 0-.551 0-.758-.069-.276-.138-.551-.276-.758-.482-.482-.414-.62-1.034-.62-2 0-1.033.137-1.653.62-2.067.276-.275.62-.46 1.034-.551.207 0 .965 0 1.171.069zm-1.171 1.172c-.138.068-.276.206-.345.482-.069.207-.069.276-.069.896 0 .69.07.827.207 1.103.276.413 1.034.413 1.31 0 .137-.207.206-.345.206-.827.07-.414 0-.896-.069-1.241a.832.832 0 0 0-.482-.482c-.276-.07-.551-.07-.758.068zM79.787 13.215c.69.184 1.103.597 1.241 1.24.069.207.069.552.069 2.068v1.723h-1.24v-.414l-.138.138c-.345.276-.62.345-1.034.345-.483.069-.965-.069-1.24-.345-.346-.206-.483-.482-.552-.965-.138-.827.275-1.447 1.102-1.654.138-.069.345-.069.965-.069h.827v-.206c0-.552-.206-.827-.827-.896-.344 0-.758.138-.965.344l-.137.07-.345-.345c-.276-.207-.414-.414-.414-.414 0-.069.276-.345.483-.413.184-.138.413-.23.69-.276.275-.069 1.17 0 1.515.069zm0 2.895h-.551c-.276 0-.62 0-.69.068-.275.07-.482.207-.482.552 0 .207.138.413.345.482.069.07.138.07.413.07.759 0 .965-.208.965-.897z" fill="#000" fill-rule="evenodd"/>
    <path d="M85.301 13.146c.552.138.965.551 1.172 1.24.069.207.069.276.069 2.068v1.792h-1.31V14.87c-.138-.276-.207-.414-.413-.482-.483-.276-1.034-.07-1.172.413-.069.138-.069.207-.069 1.792v1.654h-1.31v-5.031h1.31v.413l.069-.069c.207-.206.551-.344.827-.413zM66.348 13.215h1.309v1.654c0 1.86 0 1.86.207 2.068.207.206.345.275.62.275.368-.046.62-.207.758-.482.07-.138.07-.207.07-1.861v-1.654h1.309v5.031h-1.24v-.414l-.207.138c-.345.276-.69.414-1.241.345-.345 0-.552-.069-.758-.207-.345-.138-.552-.482-.69-.896l-.068-.275-.07-1.861z" fill="#000"/>
</svg>
